<svg width="28" height="28" viewBox="0 0 28 28" fill="none" xmlns="http://www.w3.org/2000/svg">
<g clip-path="url(#clip0_211_34)" filter="url(#filter0_d_211_34)">
<path fill-rule="evenodd" clip-rule="evenodd" d="M4 0H24V20H4V0Z" fill="white"/>
<path fill-rule="evenodd" clip-rule="evenodd" d="M7.15413 9.28993C6.92783 9.08698 6.60784 8.98945 6.19426 8.98945C5.78847 8.98945 5.47242 9.08698 5.23834 9.28993C5.02377 9.47722 4.91057 9.71918 4.91057 10.0157C4.91057 10.3241 5.02366 10.5699 5.23834 10.7572C5.47242 10.96 5.78857 11.0654 6.19426 11.0654C6.61573 11.0654 6.94734 10.9521 7.17364 10.7378L7.55993 11.1435C7.22832 11.4594 6.764 11.6157 6.16697 11.6157C5.57389 11.6157 5.10563 11.4594 4.77008 11.1435C4.45019 10.8509 4.29404 10.4723 4.29404 9.99622C4.29404 9.52806 4.45019 9.15349 4.77008 8.86079C5.10563 8.5409 5.57389 8.38475 6.16697 8.38475C6.73277 8.38475 7.17364 8.52918 7.50525 8.80621L7.15413 9.28993ZM8.5862 10.7571C8.8125 10.9599 9.1246 11.0653 9.53434 11.0653C9.94398 11.0653 10.264 10.9599 10.4981 10.7571C10.7127 10.5698 10.822 10.324 10.822 10.0156C10.822 9.71908 10.7127 9.47722 10.4981 9.28983C10.2717 9.08688 9.95186 8.98935 9.53434 8.98935C9.1246 8.98935 8.8125 9.08688 8.5862 9.28983C8.37163 9.47711 8.26237 9.71908 8.26237 10.0156C8.26237 10.324 8.37152 10.5698 8.5862 10.7571ZM9.51089 8.38464C10.1001 8.38464 10.5683 8.5408 10.9156 8.86069C11.2199 9.15339 11.376 9.52795 11.376 9.99611C11.376 10.4722 11.22 10.8507 10.9156 11.1434C10.5683 11.4593 10.1001 11.6156 9.51089 11.6156C8.91781 11.6156 8.44955 11.4593 8.11016 11.1434C7.79805 10.8508 7.6419 10.4722 7.6419 9.99611C7.6419 9.52795 7.79795 9.15339 8.11016 8.86069C8.44955 8.5408 8.91781 8.38464 9.51089 8.38464ZM17.6892 8.5408H14.9969V9.11821H16.0661V11.5646H16.6434V9.11821H17.6892V8.5408ZM11.6569 8.54858V11.5646H12.2422V9.39131L14.1464 11.5646H14.7317V8.54858H14.1464V10.7141L12.2422 8.54858H11.6569ZM23.0738 8.54858L22.1139 9.70351L21.2087 8.54858H20.5648L21.7862 10.1014L20.5845 11.5646H21.2166L22.0983 10.4994L22.945 11.5646H23.5811L22.426 10.1014L23.7059 8.54858H23.0738ZM18.177 10.4214L18.7584 9.22353L19.3357 10.4214H18.177ZM18.5085 8.54858L17.0453 11.5646H17.6267L17.8999 10.999H19.6168L19.8898 11.5646H20.4673L19.0041 8.54858H18.5085Z" fill="black"/>
</g>
<defs>
<filter id="filter0_d_211_34" x="0" y="0" width="28" height="28" filterUnits="userSpaceOnUse" color-interpolation-filters="sRGB">
<feFlood flood-opacity="0" result="BackgroundImageFix"/>
<feColorMatrix in="SourceAlpha" type="matrix" values="0 0 0 0 0 0 0 0 0 0 0 0 0 0 0 0 0 0 127 0" result="hardAlpha"/>
<feOffset dy="4"/>
<feGaussianBlur stdDeviation="2"/>
<feComposite in2="hardAlpha" operator="out"/>
<feColorMatrix type="matrix" values="0 0 0 0 0 0 0 0 0 0 0 0 0 0 0 0 0 0 0.25 0"/>
<feBlend mode="normal" in2="BackgroundImageFix" result="effect1_dropShadow_211_34"/>
<feBlend mode="normal" in="SourceGraphic" in2="effect1_dropShadow_211_34" result="shape"/>
</filter>
<clipPath id="clip0_211_34">
<rect width="20" height="20" fill="white" transform="translate(4)"/>
</clipPath>
</defs>
</svg>
