<svg width="2376" height="2500" viewBox="0 0 2376 2500" fill="none"
  xmlns="http://www.w3.org/2000/svg">
  <path
    d="M158.219 1528.47C111.205 1382 97.6438 1227.4 124.767 1068.27C136.521 1002.27 154.603 938.986 174.493 874.795C174.493 874.795 299.26 465.233 721.479 278.082C721.479 278.082 867.041 201.233 1085.84 195.808C1085.84 195.808 1056 166.877 1037.01 154.219C933.945 85.5069 780.246 62.9041 687.123 159.644C659.096 188.575 635.589 220.219 609.37 249.151C579.534 281.699 543.37 308.822 501.781 324.192C465.616 337.753 429.452 335.041 392.384 341.37C354.411 347.699 315.534 361.26 284.794 385.671C251.342 412.795 237.781 448.959 234.164 490.548C230.548 523.096 231.452 556.548 229.644 589.096C225.123 684.932 194.384 712.055 125.671 765.397C96.7397 787.096 72.3288 816.027 54.2466 846.767C4.14527e-06 942.603 86.7945 1042.05 91.3151 1138.79C92.2192 1158.68 90.4109 1178.58 83.1781 1197.56C75.9452 1218.36 61.4794 1231.92 49.726 1249.1C33.4521 1271.7 22.6027 1298.82 27.1233 1326.85C31.6438 1354.88 46.1096 1381.1 59.6712 1405.51C85.8904 1448.9 118.438 1487.78 152.795 1524.85C154.603 1524.85 156.411 1526.66 158.219 1528.47Z"
    fill="#982FCB" />
  <path
    d="M1882.56 1875.68C2090.5 1785.27 2179.1 1628.86 2179.1 1628.86C2373.49 1363.96 2307.49 1084.59 2307.49 1084.59C2183.62 1354.01 2070.61 1428.15 2070.61 1428.15C2375.3 964.339 2072.42 684.065 2072.42 684.065C2196.28 948.065 2031.73 1269.93 2031.73 1269.93C1893.41 1561.05 1697.21 1665.02 1697.21 1665.02C1916.01 1705.71 2076.94 1558.34 2076.94 1558.34C1763.21 1897.38 1423.27 1881.11 1423.27 1881.11C1566.12 2041.13 1780.39 2027.57 1780.39 2027.57C1500.12 2093.57 1237.02 2000.45 1020.94 1820.53C980.255 1787.08 941.378 1750.91 905.214 1712.04C905.214 1712.04 872.666 1677.68 866.337 1668.64L865.433 1667.74C860.913 1835 1035.41 1990.5 1035.41 1990.5C816.611 1900.09 716.255 1703.9 716.255 1703.9C716.255 1703.9 568.885 1452.56 675.57 1165.96C782.255 879.352 1105.02 817.873 1105.02 817.873C1371.73 947.161 1597.76 987.846 1597.76 987.846C2074.23 1067.41 2047.1 834.147 2047.1 834.147C2051.62 633.435 1748.75 420.065 1748.75 420.065C1208.99 19.5443 720.776 278.12 720.776 278.12C298.556 465.27 173.789 874.832 173.789 874.832C153.899 939.024 135.817 1002.31 124.063 1068.31C77.9537 1336.83 147.57 1590.89 298.556 1816.91C533.625 2167.71 915.159 2288.86 915.159 2288.86C1480.23 2480.53 1866.28 2198.45 1866.28 2198.45C2221.6 1954.34 2293.02 1672.26 2293.02 1672.26C2006.42 1896.48 1882.56 1875.68 1882.56 1875.68ZM1441.35 556.585C1468.47 556.585 1490.17 578.284 1490.17 605.407C1490.17 632.531 1468.47 654.229 1441.35 654.229C1414.23 654.229 1392.53 632.531 1392.53 605.407C1392.53 578.284 1414.23 556.585 1441.35 556.585Z"
    fill="#982FCB" />
  <path
    d="M2046.9 833.205C2051.42 632.493 1748.55 419.123 1748.55 419.123C1208.79 19.5069 720.575 278.082 720.575 278.082C298.356 465.233 173.589 874.794 173.589 874.794C149.178 944.411 127.48 1051.1 127.48 1051.1C101.26 1184.9 113.014 1308.77 113.014 1308.77C123.863 1427.21 150.082 1506.77 150.082 1506.77C177.206 1591.75 189.863 1617.97 189.863 1617.97C188.959 1615.26 184.438 1595.37 184.438 1595.37C184.438 1595.37 146.466 1412.74 181.726 1237.34C181.726 1237.34 212.466 1054.71 337.233 913.671C337.233 913.671 539.753 625.26 916.767 738.274C916.767 738.274 998.137 767.205 1026.16 781.671C1054.19 795.233 1103.01 816.027 1103.01 816.027C1369.73 945.315 1595.75 986 1595.75 986C2074.03 1066.47 2046.9 833.205 2046.9 833.205ZM1442.05 655.096C1414.93 655.096 1393.23 633.397 1393.23 606.274C1393.23 579.151 1414.93 557.452 1442.05 557.452C1469.18 557.452 1490.88 579.151 1490.88 606.274C1490.88 633.397 1469.18 655.096 1442.05 655.096Z"
    fill="#982FCB" />
  <path
    d="M1132.85 469.753L824.548 373.918C822.74 373.918 813.699 369.397 797.425 373.918C797.425 373.918 615.699 420.027 647.342 519.479C647.342 519.479 666.329 581.863 717.863 642.438L1056.9 626.164L1132.85 469.753Z"
    fill="#982FCB" />
</svg>